<?xml version="1.0" encoding="iso-8859-1"?>
<!-- Uploaded to: SVG Repo, www.svgrepo.com, Generator: SVG Repo Mixer Tools -->
<svg height="800px" width="800px" version="1.1" id="Layer_1" xmlns="http://www.w3.org/2000/svg" xmlns:xlink="http://www.w3.org/1999/xlink" 
	 viewBox="0 0 511.546 511.546" xml:space="preserve">
<g transform="translate(1 1)">
	<g>
		<polygon style="fill:#FFDD09;" points="493.48,297.44 374.013,297.44 374.013,212.106 459.346,212.106 		"/>
		<polygon style="fill:#FFDD09;" points="391.08,212.106 442.28,212.106 442.28,169.44 391.08,169.44 		"/>
	</g>
	<polygon style="fill:#54C9FD;" points="469.586,237.706 433.746,237.706 433.746,271.84 483.24,271.84 	"/>
	<g>
		<path style="fill:#FFDD09;" d="M348.413,297.44h-102.4l17.067-90.453c2.56-17.067,17.067-29.013,34.133-29.013
			s31.573,11.947,34.133,29.013L348.413,297.44z"/>
		<path style="fill:#FFDD09;" d="M194.813,84.106c0-14.507-11.093-25.6-25.6-25.6c-14.507,0-25.6,11.093-25.6,25.6
			s11.093,25.6,25.6,25.6C183.72,109.706,194.813,98.613,194.813,84.106"/>
		<path style="fill:#FFDD09;" d="M262.226,212.96l0.853-6.827c2.56-17.067,17.067-29.013,34.133-29.013
			c3.413,0,5.973,0.853,9.387,1.707l-111.787-94.72l0,0c0,12.8-9.387,23.893-22.187,25.6L262.226,212.96z"/>
	</g>
	<polygon style="fill:#FCC309;" points="32.68,297.44 135.08,297.44 135.08,229.173 32.68,229.173 	"/>
	<path style="fill:#FFDD09;" d="M406.44,451.04H61.693c-6.827,0-11.947-5.12-11.947-11.947v-22.187L8.786,320.48
		c-5.12-11.093,3.413-23.04,15.36-23.04H493.48c5.12,0,8.533,3.413,8.533,8.533v64.853c0,2.56-0.853,5.12-2.56,5.973l-75.093,67.413
		C419.24,448.48,413.266,451.04,406.44,451.04"/>
	<path style="fill:#FFFFFF;" d="M75.346,439.093v-22.187l-40.96-96.427c-5.12-11.093,2.56-23.04,15.36-23.04h-25.6
		c-11.947,0-20.48,11.947-15.36,23.04l40.96,96.427v22.187c0,6.827,5.12,11.947,11.947,11.947h25.6
		C80.466,451.04,75.346,445.92,75.346,439.093"/>
	<path style="fill:#FD9808;" d="M493.48,297.44h-25.6c5.12,0,8.533,3.413,8.533,8.533v64.853c0,2.56-0.853,5.12-2.56,5.973
		l-75.093,67.413c-5.12,4.267-11.093,6.827-17.067,6.827h25.6c5.973,0,12.8-2.56,17.067-6.827l75.093-67.413
		c1.707-1.707,2.56-4.267,2.56-5.973v-64.853C502.013,300.853,498.6,297.44,493.48,297.44"/>
	<g>
		<path style="fill:#54C9FD;" d="M280.146,357.173c0-14.507-11.093-25.6-25.6-25.6s-25.6,11.093-25.6,25.6
			c0,14.507,11.093,25.6,25.6,25.6S280.146,371.68,280.146,357.173"/>
		<path style="fill:#54C9FD;" d="M425.213,357.173c0-14.507-11.093-25.6-25.6-25.6c-14.507,0-25.6,11.093-25.6,25.6
			c0,14.507,11.093,25.6,25.6,25.6C414.12,382.773,425.213,371.68,425.213,357.173"/>
		<path style="fill:#54C9FD;" d="M135.08,357.173c0-14.507-11.093-25.6-25.6-25.6s-25.6,11.093-25.6,25.6
			c0,14.507,11.093,25.6,25.6,25.6S135.08,371.68,135.08,357.173"/>
	</g>
	<path d="M406.44,459.573H61.693c-11.093,0-20.48-9.387-20.48-20.48v-20.48l-40.107-94.72c-3.413-7.68-2.56-17.067,1.707-23.893
		c5.12-6.827,12.8-11.093,21.333-11.093H493.48c9.387,0,17.067,7.68,17.067,17.067v64.853c0,5.12-1.707,9.387-5.973,12.8
		L429.48,451.04C423.506,456.16,414.973,459.573,406.44,459.573z M24.146,305.973c-2.56,0-5.12,1.707-6.827,3.413
		c-1.707,2.56-1.707,5.12-0.853,7.68l40.96,96.427c0.853,0.853,0.853,2.56,0.853,3.413v22.187c0,1.707,1.707,3.413,3.413,3.413
		h345.6c4.267,0,8.533-1.707,11.093-4.267l75.093-67.413v-64.853H24.146z"/>
	<path d="M493.48,305.973H374.013c-5.12,0-8.533-3.413-8.533-8.533v-85.333c0-5.12,3.413-8.533,8.533-8.533h85.333
		c3.413,0,6.827,1.707,7.68,5.12l34.133,85.333c0.853,2.56,0.853,5.973-0.853,7.68C498.6,304.266,496.04,305.973,493.48,305.973z
		 M382.546,288.906h98.133l-27.307-68.267h-70.827V288.906z"/>
	<path d="M442.28,220.64h-51.2c-5.12,0-8.533-3.413-8.533-8.533V169.44c0-5.12,3.413-8.533,8.533-8.533h51.2
		c5.12,0,8.533,3.413,8.533,8.533v42.667C450.813,217.226,447.4,220.64,442.28,220.64z M399.613,203.573h34.133v-25.6h-34.133
		V203.573z"/>
	<path d="M406.44,459.573H61.693c-11.093,0-20.48-9.387-20.48-20.48v-22.187c0-5.12,3.413-8.533,8.533-8.533h404.48
		c3.413,0,6.827,2.56,7.68,5.12c0.853,2.56,0,6.827-2.56,9.387l-29.867,28.16C423.506,456.16,414.973,459.573,406.44,459.573z
		 M58.28,425.44v13.653c0,1.707,1.707,3.413,3.413,3.413h345.6c4.267,0,8.533-1.707,11.093-4.267l14.507-12.8H58.28z"/>
	<path d="M483.24,280.373h-49.493c-5.12,0-8.533-3.413-8.533-8.533v-34.133c0-5.12,3.413-8.533,8.533-8.533h35.84
		c3.413,0,6.827,1.707,7.68,5.12l13.653,34.133c0.853,2.56,0.853,5.973-0.853,7.68C488.36,278.666,485.8,280.373,483.24,280.373z
		 M442.28,263.306h28.16l-6.827-17.067H442.28V263.306z"/>
	<path d="M254.546,391.306c-18.773,0-34.133-15.36-34.133-34.133c0-18.773,15.36-34.133,34.133-34.133s34.133,15.36,34.133,34.133
		C288.68,375.946,273.32,391.306,254.546,391.306z M254.546,340.106c-9.387,0-17.067,7.68-17.067,17.067
		c0,9.387,7.68,17.067,17.067,17.067s17.067-7.68,17.067-17.067C271.613,347.786,263.933,340.106,254.546,340.106z"/>
	<path d="M399.613,391.306c-18.773,0-34.133-15.36-34.133-34.133c0-18.773,15.36-34.133,34.133-34.133
		c18.773,0,34.133,15.36,34.133,34.133C433.746,375.946,418.386,391.306,399.613,391.306z M399.613,340.106
		c-9.387,0-17.067,7.68-17.067,17.067c0,9.387,7.68,17.067,17.067,17.067s17.067-7.68,17.067-17.067
		C416.68,347.786,409,340.106,399.613,340.106z"/>
	<path d="M109.48,391.306c-18.773,0-34.133-15.36-34.133-34.133c0-18.773,15.36-34.133,34.133-34.133s34.133,15.36,34.133,34.133
		C143.613,375.946,128.253,391.306,109.48,391.306z M109.48,340.106c-9.387,0-17.067,7.68-17.067,17.067
		c0,9.387,7.68,17.067,17.067,17.067s17.067-7.68,17.067-17.067C126.546,347.786,118.866,340.106,109.48,340.106z"/>
	<path d="M348.413,305.973h-102.4c-2.56,0-5.12-0.853-6.827-3.413c-1.707-1.707-1.707-4.267-1.707-6.827l17.067-90.453
		c3.413-20.48,21.333-35.84,42.667-35.84s39.253,15.36,42.667,35.84l17.067,90.453c0.853,2.56,0,5.12-1.707,6.827
		C353.533,305.12,350.973,305.973,348.413,305.973z M256.253,288.906h81.92l-15.36-80.213c-1.707-12.8-12.8-22.187-25.6-22.187
		s-23.893,9.387-25.6,21.333L256.253,288.906z"/>
	<path d="M169.213,118.24c-18.773,0-34.133-15.36-34.133-34.133s15.36-34.133,34.133-34.133s34.133,15.36,34.133,34.133
		S187.986,118.24,169.213,118.24z M169.213,67.04c-9.387,0-17.067,7.68-17.067,17.067s7.68,17.067,17.067,17.067
		c9.387,0,17.067-7.68,17.067-17.067S178.6,67.04,169.213,67.04z"/>
	<path d="M169.213,220.64c-18.773,0-34.133-15.36-34.133-34.133c0-5.12,3.413-8.533,8.533-8.533c5.12,0,8.533,3.413,8.533,8.533
		c0,9.387,7.68,17.067,17.067,17.067c9.387,0,17.067-7.68,17.067-17.067c0-9.387-7.68-17.067-17.067-17.067
		c-5.12,0-8.533-3.413-8.533-8.533c0-5.12,3.413-8.533,8.533-8.533c18.773,0,34.133,15.36,34.133,34.133
		S187.986,220.64,169.213,220.64z"/>
	<path d="M169.213,169.44c-5.12,0-8.533-3.413-8.533-8.533v-51.2c0-5.12,3.413-8.533,8.533-8.533c5.12,0,8.533,3.413,8.533,8.533
		v51.2C177.746,166.026,174.333,169.44,169.213,169.44z"/>
	<path d="M262.226,221.493c-2.56,0-5.12-0.853-6.827-2.56l-89.6-104.107c-1.707-2.56-2.56-5.973-1.707-8.533
		c1.707-2.56,4.267-5.12,7.68-5.12c8.533-0.853,14.507-8.533,14.507-17.067c0-3.413,1.707-5.973,5.12-7.68
		c3.413-1.707,6.827-0.853,9.387,0.853l111.787,95.573c3.413,2.56,4.267,6.827,1.707,10.24c-1.707,3.413-5.973,5.12-9.387,4.267
		c-3.413-0.853-5.973-0.853-7.68-0.853c-12.8,0-23.893,9.387-25.6,21.333l-0.853,6.827c-0.853,3.413-3.413,5.973-5.973,6.827
		C263.08,221.493,263.08,221.493,262.226,221.493z M187.133,113.12l70.827,81.92c5.12-11.093,14.507-19.627,26.453-23.893
		l-84.48-71.68C196.52,105.44,192.253,109.706,187.133,113.12z"/>
	<path d="M135.08,305.973H32.68c-5.12,0-8.533-3.413-8.533-8.533v-68.267c0-5.12,3.413-8.533,8.533-8.533h102.4
		c5.12,0,8.533,3.413,8.533,8.533v68.267C143.613,302.56,140.2,305.973,135.08,305.973z M41.213,288.906h85.333v-51.2H41.213
		V288.906z"/>
	<path d="M66.813,263.306c-5.12,0-8.533-3.413-8.533-8.533v-25.6c0-5.12,3.413-8.533,8.533-8.533c5.12,0,8.533,3.413,8.533,8.533
		v25.6C75.346,259.893,71.933,263.306,66.813,263.306z"/>
	<path d="M100.946,263.306c-5.12,0-8.533-3.413-8.533-8.533v-25.6c0-5.12,3.413-8.533,8.533-8.533s8.533,3.413,8.533,8.533v25.6
		C109.48,259.893,106.066,263.306,100.946,263.306z"/>
</g>
</svg>